<svg width="56" height="56" viewBox="0 0 56 56" fill="none" xmlns="http://www.w3.org/2000/svg">
<g filter="url(#filter0_d_432_817)">
<circle cx="28" cy="24" r="21.5" fill="#E1AB43" stroke="black" stroke-width="5"/>
<g clip-path="url(#clip0_432_817)">
<path d="M30.625 17.7177C30.9958 17.7177 31.3584 17.6087 31.6667 17.4044C31.975 17.2002 32.2154 16.9098 32.3573 16.5702C32.4992 16.2305 32.5363 15.8568 32.464 15.4962C32.3916 15.1356 32.2131 14.8044 31.9508 14.5444C31.6886 14.2845 31.3545 14.1074 30.9908 14.0357C30.6271 13.964 30.2501 14.0008 29.9075 14.1415C29.5649 14.2822 29.272 14.5204 29.066 14.8261C28.86 15.1318 28.75 15.4912 28.75 15.8588C28.75 16.3518 28.9475 16.8246 29.2992 17.1732C29.6508 17.5218 30.1277 17.7177 30.625 17.7177ZM30.4688 22.4035C30.6904 22.5795 30.966 22.6751 31.25 22.6746H33.75C34.0815 22.6746 34.3995 22.544 34.6339 22.3116C34.8683 22.0792 35 21.764 35 21.4353C35 21.1067 34.8683 20.7915 34.6339 20.5591C34.3995 20.3267 34.0815 20.1961 33.75 20.1961H31.6883L28.9063 17.9888C28.6792 17.808 28.3955 17.7117 28.1044 17.7165C27.8132 17.7214 27.533 17.827 27.3121 18.0151L22.9371 21.7328C22.7906 21.8573 22.6751 22.0138 22.5998 22.19C22.5245 22.3662 22.4914 22.5573 22.503 22.7484C22.5147 22.9394 22.5708 23.1251 22.667 23.291C22.7632 23.457 22.8968 23.5985 23.0574 23.7047L26.25 25.816V30.1099C26.25 30.4386 26.3817 30.7538 26.6161 30.9862C26.8505 31.2186 27.1685 31.3491 27.5 31.3491C27.8315 31.3491 28.1495 31.2186 28.3839 30.9862C28.6183 30.7538 28.75 30.4386 28.75 30.1099V25.153C28.75 24.949 28.6991 24.7482 28.602 24.5684C28.5049 24.3886 28.3646 24.2353 28.1934 24.1221L26.5777 23.0545L28.8531 21.1213L30.4688 22.4035ZM35 23.9138C34.0111 23.9138 33.0444 24.2045 32.2222 24.7492C31.3999 25.2938 30.759 26.068 30.3806 26.9738C30.0022 27.8795 29.9032 28.8762 30.0961 29.8377C30.289 30.7993 30.7652 31.6825 31.4645 32.3757C32.1637 33.069 33.0546 33.5411 34.0246 33.7323C34.9945 33.9236 35.9998 33.8254 36.9134 33.4503C37.8271 33.0751 38.6079 32.4397 39.1574 31.6246C39.7068 30.8094 40 29.8511 40 28.8707C40 27.556 39.4732 26.2952 38.5355 25.3656C37.5979 24.436 36.3261 23.9138 35 23.9138ZM35 31.3491C34.5056 31.3491 34.0222 31.2038 33.6111 30.9314C33.2 30.6591 32.8795 30.272 32.6903 29.8191C32.5011 29.3663 32.4516 28.8679 32.548 28.3872C32.6445 27.9064 32.8826 27.4648 33.2322 27.1182C33.5819 26.7715 34.0273 26.5355 34.5123 26.4399C34.9972 26.3442 35.4999 26.3933 35.9567 26.5809C36.4135 26.7685 36.804 27.0862 37.0787 27.4937C37.3534 27.9013 37.5 28.3805 37.5 28.8707C37.5 29.528 37.2366 30.1584 36.7678 30.6232C36.2989 31.088 35.663 31.3491 35 31.3491ZM20 23.9138C19.0111 23.9138 18.0444 24.2045 17.2222 24.7492C16.3999 25.2938 15.759 26.068 15.3806 26.9738C15.0022 27.8795 14.9031 28.8762 15.0961 29.8377C15.289 30.7993 15.7652 31.6825 16.4645 32.3757C17.1637 33.069 18.0546 33.5411 19.0246 33.7323C19.9945 33.9236 20.9998 33.8254 21.9134 33.4503C22.8271 33.0751 23.6079 32.4397 24.1574 31.6246C24.7068 30.8094 25 29.8511 25 28.8707C25 27.556 24.4732 26.2952 23.5355 25.3656C22.5979 24.436 21.3261 23.9138 20 23.9138ZM20 31.3491C19.5055 31.3491 19.0222 31.2038 18.6111 30.9314C18.2 30.6591 17.8795 30.272 17.6903 29.8191C17.5011 29.3663 17.4516 28.8679 17.548 28.3872C17.6445 27.9064 17.8826 27.4648 18.2322 27.1182C18.5819 26.7715 19.0273 26.5355 19.5123 26.4399C19.9972 26.3442 20.4999 26.3933 20.9567 26.5809C21.4135 26.7685 21.804 27.0862 22.0787 27.4937C22.3534 27.9013 22.5 28.3805 22.5 28.8707C22.5 29.528 22.2366 30.1584 21.7678 30.6232C21.2989 31.088 20.663 31.3491 20 31.3491Z" fill="black"/>
</g>
</g>
<defs>
<filter id="filter0_d_432_817" x="0" y="0" width="56" height="56" filterUnits="userSpaceOnUse" color-interpolation-filters="sRGB">
<feFlood flood-opacity="0" result="BackgroundImageFix"/>
<feColorMatrix in="SourceAlpha" type="matrix" values="0 0 0 0 0 0 0 0 0 0 0 0 0 0 0 0 0 0 127 0" result="hardAlpha"/>
<feOffset dy="4"/>
<feGaussianBlur stdDeviation="2"/>
<feComposite in2="hardAlpha" operator="out"/>
<feColorMatrix type="matrix" values="0 0 0 0 0 0 0 0 0 0 0 0 0 0 0 0 0 0 0.25 0"/>
<feBlend mode="normal" in2="BackgroundImageFix" result="effect1_dropShadow_432_817"/>
<feBlend mode="normal" in="SourceGraphic" in2="effect1_dropShadow_432_817" result="shape"/>
</filter>
<clipPath id="clip0_432_817">
<rect width="25" height="19.8276" fill="white" transform="translate(15 14)"/>
</clipPath>
</defs>
</svg>
