<svg width="30" height="30" viewBox="0 0 30 30" fill="none" xmlns="http://www.w3.org/2000/svg">
<path d="M2.92607 18.0029H19.7209L12.8283 24.88C12.5492 25.1585 12.3278 25.4892 12.1767 25.853C12.0257 26.2169 11.9479 26.6069 11.9479 27.0008C11.9479 27.3946 12.0257 27.7847 12.1767 28.1485C12.3278 28.5124 12.5492 28.843 12.8283 29.1215C13.1075 29.4001 13.4388 29.621 13.8035 29.7717C14.1682 29.9224 14.5591 30 14.9539 30C15.3486 30 15.7395 29.9224 16.1042 29.7717C16.4689 29.621 16.8003 29.4001 17.0794 29.1215L29.1072 17.1208C29.3899 16.8443 29.6144 16.5143 29.7677 16.1501C29.921 15.786 30 15.395 30 15C30 14.605 29.921 14.214 29.7677 13.8499C29.6144 13.4857 29.3899 13.1557 29.1072 12.8792L17.0794 0.878453C16.5157 0.315992 15.7511 -1.568e-08 14.9539 0C14.1566 1.568e-08 13.3921 0.315992 12.8283 0.878453C12.2646 1.44091 11.9479 2.20377 11.9479 2.99921C11.9479 3.79465 12.2646 4.55751 12.8283 5.11997L19.7231 11.9992H2.92607C2.14282 12.0204 1.39877 12.3457 0.852279 12.906C0.305785 13.4662 0 14.2171 0 14.9989C0 15.7807 0.305785 16.5316 0.852279 17.0918C1.39877 17.6521 2.14282 17.9774 2.92607 17.9985V18.0029Z" fill="#a3c896"/>
</svg>
