<svg width="21" height="30" viewBox="0 0 21 30" fill="none" xmlns="http://www.w3.org/2000/svg">
<path d="M15.0047 9.99996C15.0047 9.01111 14.7114 8.04447 14.1621 7.22227C13.6127 6.40007 12.8318 5.75924 11.9183 5.38083C11.0047 5.00241 9.9994 4.9034 9.02955 5.09632C8.0597 5.28923 7.16884 5.76541 6.46961 6.46463C5.77039 7.16385 5.29421 8.05472 5.1013 9.02457C4.90838 9.99442 5.0074 10.9997 5.38581 11.9133C5.76423 12.8268 6.40505 13.6077 7.22725 14.1571C8.04945 14.7064 9.01609 14.9997 10.0049 14.9997C11.3309 14.9997 12.6026 14.4729 13.5403 13.5353C14.4779 12.5977 15.0047 11.326 15.0047 9.99996ZM20.0044 9.99996C20.0484 11.1983 19.8287 12.3917 19.3608 13.4958L12.2511 28.6129C12.0441 29.0312 11.7238 29.3829 11.3267 29.6281C10.9296 29.8733 10.4716 30.0021 10.0049 29.9999C9.54027 30.0045 9.08393 29.8764 8.68949 29.6308C8.29505 29.3851 7.97888 29.032 7.77808 28.6129L0.649121 13.4958C0.181212 12.3917 -0.0384977 11.1983 0.00551893 9.99996C0.00551893 7.3478 1.05908 4.80428 2.93444 2.92892C4.8098 1.05356 7.35333 0 10.0055 0C12.6576 0 15.2012 1.05356 17.0765 2.92892C18.9519 4.80428 20.0054 7.3478 20.0054 9.99996H20.0044Z" fill="black"/>
</svg>
