<svg width="30" height="30" viewBox="0 0 30 30" fill="none" xmlns="http://www.w3.org/2000/svg">
<path d="M21.6329 17.843C19.7329 19.743 19.7329 21.633 17.8429 21.633C15.9529 21.633 14.0529 19.733 12.1579 17.843C10.2629 15.953 8.36787 14.053 8.36787 12.158C8.36787 10.263 10.2679 10.258 12.1579 8.36805C14.0479 6.47805 8.36687 0.787048 6.47187 0.787048C4.57687 0.787048 0.786865 6.47205 0.786865 6.47205C0.786865 10.262 4.68087 17.946 8.36687 21.633C12.0529 25.32 19.7379 29.213 23.5279 29.213C23.5279 29.213 29.2129 25.423 29.2129 23.528C29.2129 21.633 23.5279 15.948 21.6329 17.843Z" fill="black"/>
</svg>
