<svg width="30" height="30" viewBox="0 0 30 30" fill="none" xmlns="http://www.w3.org/2000/svg">
<path d="M18.5799 21.2219C16.2887 22.8514 13.4689 23.5605 10.6795 23.2089C7.89003 22.8572 5.33452 21.4704 3.51943 19.3233C1.70434 17.1761 0.76218 14.4254 0.879676 11.6164C0.997172 8.80731 2.16575 6.1449 4.1538 4.15685C6.14185 2.1688 8.80425 1.00022 11.6133 0.882728C14.4224 0.765232 17.1731 1.7074 19.3202 3.52248C21.4673 5.33757 22.8542 7.89309 23.2058 10.6825C23.5575 13.472 22.8483 16.2917 21.2189 18.5829L28.5869 25.9509C28.7587 26.1218 28.8951 26.3249 28.9881 26.5486C29.0812 26.7723 29.1291 27.0122 29.1291 27.2544C29.1291 27.4967 29.0812 27.7366 28.9881 27.9603C28.8951 28.184 28.7587 28.3871 28.5869 28.5579L28.5569 28.5879C28.211 28.9333 27.7422 29.1272 27.2534 29.1272C26.7646 29.1272 26.2958 28.9333 25.9499 28.5879L18.5819 21.2199L18.5799 21.2219ZM12.0799 20.6589C13.7759 20.6589 15.4337 20.156 16.8439 19.2138C18.2541 18.2716 19.3531 16.9323 20.0022 15.3654C20.6512 13.7986 20.821 12.0744 20.4901 10.411C20.1593 8.74765 19.3426 7.21973 18.1433 6.0205C16.9441 4.82126 15.4162 4.00457 13.7528 3.6737C12.0894 3.34284 10.3653 3.51265 8.79838 4.16167C7.2315 4.81069 5.89227 5.90977 4.95003 7.31992C4.0078 8.73007 3.50489 10.388 3.50489 12.0839C3.50489 14.3582 4.40832 16.5393 6.01645 18.1474C7.62457 19.7555 9.80566 20.6589 12.0799 20.6589Z" fill="black"/>
</svg>
