<svg width="17" height="30" viewBox="0 0 17 30" fill="none" xmlns="http://www.w3.org/2000/svg">
<circle cx="8.07692" cy="21.9231" r="8.07692" fill="#F15C2D"/>
<g clip-path="url(#clip0_432_802)">
<path d="M6.53842 14.2852V21.3475L7.59708 22.8358C7.82544 23.1567 8.32881 23.1567 8.55717 22.8358L9.61535 21.3475V14.2852C9.11583 14.3717 8.60285 14.4231 8.07689 14.4231C7.55092 14.4231 7.03794 14.3717 6.53842 14.2852ZM8.07689 0C4.25333 0 1.15381 2.9058 1.15381 6.49038C1.15381 10.075 4.25333 12.9808 8.07689 12.9808C11.9004 12.9808 15 10.075 15 6.49038C15 2.9058 11.9004 0 8.07689 0ZM8.07689 3.42548C6.274 3.42548 4.80765 4.80018 4.80765 6.49038C4.80765 6.78876 4.549 7.03125 4.23073 7.03125C3.91246 7.03125 3.65381 6.78876 3.65381 6.49038C3.65381 4.20388 5.63842 2.34375 8.07689 2.34375C8.39515 2.34375 8.65381 2.58624 8.65381 2.88462C8.65381 3.18299 8.39515 3.42548 8.07689 3.42548Z" fill="black"/>
</g>
<defs>
<clipPath id="clip0_432_802">
<rect width="13.8462" height="23.0769" fill="white" transform="translate(1.15381)"/>
</clipPath>
</defs>
</svg>
